<svg aria-hidden="true" style="position: absolute; width: 0; height: 0; overflow: hidden;" version="1.1" xmlns="http://www.w3.org/2000/svg" xmlns:xlink="http://www.w3.org/1999/xlink">
<defs>
<symbol id="step-down" viewBox="0 0 32 32">
<path d="M14.494 22.28l-9.592-10.964c-1.132-1.29-0.212-3.316 1.506-3.316h19.184c0.385-0 0.761 0.11 1.084 0.318s0.58 0.505 0.739 0.855c0.159 0.35 0.213 0.739 0.157 1.119s-0.221 0.736-0.474 1.026l-9.592 10.96c-0.188 0.215-0.419 0.387-0.679 0.505s-0.542 0.179-0.827 0.179c-0.285 0-0.567-0.061-0.827-0.179s-0.491-0.29-0.679-0.505v0.002z"></path>
</symbol>
<symbol id="step-up" viewBox="0 0 32 32">
<path d="M14.494 9.72l-9.592 10.962c-1.132 1.294-0.212 3.318 1.506 3.318h19.184c0.385 0 0.761-0.11 1.084-0.318s0.58-0.505 0.739-0.855c0.159-0.35 0.213-0.739 0.157-1.119s-0.221-0.736-0.474-1.026l-9.592-10.96c-0.188-0.215-0.419-0.387-0.679-0.505s-0.542-0.179-0.827-0.179c-0.285 0-0.567 0.061-0.827 0.179s-0.491 0.288-0.679 0.503z"></path>
</symbol>
</defs>
</svg>
